HIERARCHY
ROOT Hips
{
	OFFSET 0.00000 0.00000 0.00000
	CHANNELS 6 Xposition Yposition Zposition Zrotation Yrotation Xrotation 
	JOINT LHipJoint
	{
		OFFSET 0 0 0
		CHANNELS 3 Zrotation Yrotation Xrotation
		JOINT LeftUpLeg
		{
			OFFSET 1.80322 -1.53100 0.99595
			CHANNELS 3 Zrotation Yrotation Xrotation
			JOINT LeftLeg
			{
				OFFSET 2.25177 -6.18669 0.00000
				CHANNELS 3 Zrotation Yrotation Xrotation
				JOINT LeftFoot
				{
					OFFSET 2.26601 -6.22582 0.00000
					CHANNELS 3 Zrotation Yrotation Xrotation
					JOINT LeftToeBase
					{
						OFFSET 0.23701 -0.65119 2.15848
						CHANNELS 3 Zrotation Yrotation Xrotation
						End Site
						{
							OFFSET 0.00000 -0.00000 1.12949
						}
					}
				}
			}
		}
	}
	JOINT RHipJoint
	{
		OFFSET 0 0 0
		CHANNELS 3 Zrotation Yrotation Xrotation
		JOINT RightUpLeg
		{
			OFFSET -1.93977 -1.53100 0.99595
			CHANNELS 3 Zrotation Yrotation Xrotation
			JOINT RightLeg
			{
				OFFSET -2.28036 -6.26523 0.00000
				CHANNELS 3 Zrotation Yrotation Xrotation
				JOINT RightFoot
				{
					OFFSET -2.25490 -6.19528 0.00000
					CHANNELS 3 Zrotation Yrotation Xrotation
					JOINT RightToeBase
					{
						OFFSET -0.28375 -0.77960 2.23137
						CHANNELS 3 Zrotation Yrotation Xrotation
						End Site
						{
							OFFSET -0.00000 -0.00000 1.17899
						}
					}
				}
			}
		}
	}
	JOINT LowerBack
	{
		OFFSET 0 0 0
		CHANNELS 3 Zrotation Yrotation Xrotation
		JOINT Spine
		{
			OFFSET -0.00088 2.12090 -0.02806
			CHANNELS 3 Zrotation Yrotation Xrotation
			JOINT Spine1
			{
				OFFSET -0.00286 2.09666 0.12974
				CHANNELS 3 Zrotation Yrotation Xrotation
				JOINT Neck
				{
					OFFSET 0 0 0
					CHANNELS 3 Zrotation Yrotation Xrotation
					JOINT Neck1
					{
						OFFSET 0.07328 1.83526 0.07290
						CHANNELS 3 Zrotation Yrotation Xrotation
						JOINT Head
						{
							OFFSET -0.06683 1.74974 -0.49542
							CHANNELS 3 Zrotation Yrotation Xrotation
							End Site
							{
								OFFSET -0.03398 1.85163 -0.17573
							}
						}
					}
				}
				JOINT LeftShoulder
				{
					OFFSET 0 0 0
					CHANNELS 3 Zrotation Yrotation Xrotation
					JOINT LeftArm
					{
						OFFSET 3.02113 1.18018 0.40602
						CHANNELS 3 Zrotation Yrotation Xrotation
						JOINT LeftForeArm
						{
							OFFSET 4.58538 -0.00000 -0.00000
							CHANNELS 3 Zrotation Yrotation Xrotation
							JOINT LeftHand
							{
								OFFSET 2.68935 -0.00000 -0.00000
								CHANNELS 3 Zrotation Yrotation Xrotation
								JOINT LeftFingerBase
								{
									OFFSET 0 0 0
									CHANNELS 3 Zrotation Yrotation Xrotation
									JOINT LeftHandIndex1
									{
										OFFSET 0.58506 -0.00000 -0.00000
										CHANNELS 3 Zrotation Yrotation Xrotation
										End Site
										{
											OFFSET 0.47169 -0.00000 -0.00000
										}
									}
								}
								JOINT LThumb
								{
									OFFSET 0 0 0
									CHANNELS 3 Zrotation Yrotation Xrotation
									End Site
									{
										OFFSET 0.47889 -0.00000 0.47889
									}
								}
							}
						}
					}
				}
				JOINT RightShoulder
				{
					OFFSET 0 0 0
					CHANNELS 3 Zrotation Yrotation Xrotation
					JOINT RightArm
					{
						OFFSET -2.95074 1.18843 0.31430
						CHANNELS 3 Zrotation Yrotation Xrotation
						JOINT RightForeArm
						{
							OFFSET -4.47450 -0.00000 -0.00000
							CHANNELS 3 Zrotation Yrotation Xrotation
							JOINT RightHand
							{
								OFFSET -2.93896 -0.00000 -0.00000
								CHANNELS 3 Zrotation Yrotation Xrotation
								JOINT RightFingerBase
								{
									OFFSET 0 0 0
									CHANNELS 3 Zrotation Yrotation Xrotation
									JOINT RightHandIndex1
									{
										OFFSET -0.40509 -0.00000 -0.00000
										CHANNELS 3 Zrotation Yrotation Xrotation
										End Site
										{
											OFFSET -0.32660 -0.00000 -0.00000
										}
									}
								}
								JOINT RThumb
								{
									OFFSET 0 0 0
									CHANNELS 3 Zrotation Yrotation Xrotation
									End Site
									{
										OFFSET -0.33158 -0.00000 0.33158
									}
								}
							}
						}
					}
				}
			}
		}
	}
}
MOTION
Frames: 8
Frame Time: .0083333
0.8575 15.6937 6.0834 0 0 0 0 0 0 -21 0 0 0 0 0 0 0 0 0 0 0 0 0 0 21 0 0 0 0 0 0 0 0 0 0 0 0 0 0 0 0 0 0 0 0 0 0 -16 0 0 21 0 0 11 0 0 0 -8 0 0 0 0 0 0 0 0 0 0 0 0 0 0 0 0 0 0 0 0 8 0 0 0 0 0 0 0 0 0 0 0 0 0 0 0 0 0
0.8575 15.6937 6.0834 5.4818 -2.0705 5.4604 0.0000 0.0000 0.0000 -22.3400 -12.0147 -5.0871 0.6018 4.9660 13.8117 -0.1052 11.1032 -14.1495 0.0180 0.8667 2.3821 0.0000 0.0000 0.0000 5.7626 7.3910 -4.5014 -2.3935 -9.6416 27.8239 -0.5857 -14.2992 -25.7825 -0.3886 4.0028 -11.0846 -6.2675 -3.9155 -4.2093 0.1261 -5.1799 -7.0505 3.5827 -2.2931 -4.4287 -3.0112 -8.0702 -0.0191 -3.2937 -10.5147 24.1915 -1.2437 -5.6463 7.4257 -0.0000 -0.0000 0.0000 -81.0182 10.1797 43.6755 119.2911 -56.4959 -85.0684 -0.0000 0.0000 -1.0349 9.7223 10.7951 1.8380 -7.1250 0.0000 -0.0000 -15.2274 40.4524 1.7538 -0.0000 -0.0000 0.0000 73.7377 -4.1019 54.3192 -65.5581 57.6177 -39.0020 0.0000 -0.0000 -19.8021 -4.8550 -10.6881 0.9025 7.1250 -0.0000 -0.0000 19.3112 -39.9368 2.5191
0.9452 15.6966 6.0968 5.7082 -2.1342 5.3780 0.0000 0.0000 0.0000 -22.9649 -11.4728 -4.9856 0.5712 4.8403 13.4535 -0.0946 10.7824 -13.8208 0.0212 0.9392 2.5815 0.0000 0.0000 0.0000 5.0204 7.0343 -4.8798 -2.4772 -9.7962 28.3194 -0.5702 -13.9136 -25.2378 -0.4491 4.2997 -11.9215 -6.3685 -3.8729 -4.0274 0.1531 -5.1334 -6.9994 3.6788 -2.2636 -4.4719 -2.8920 -8.0702 0.1398 -3.7076 -10.4296 23.2555 -1.3449 -5.6213 7.0564 0.0000 0.0000 0.0000 -81.2648 11.1251 43.7707 115.4952 -57.3955 -81.8864 -0.0000 0.0000 -1.5609 9.7137 11.0560 1.8802 -7.1250 0.0000 -0.0000 -15.3018 40.7063 1.6644 0.0000 0.0000 0.0000 74.0124 -4.4265 54.1316 -61.3995 56.6715 -35.5080 0.0000 -0.0000 -19.1022 -4.7481 -12.0111 0.9903 7.1250 -0.0000 -0.0000 19.8001 -41.1765 1.9536
1.0357 15.6975 6.1116 5.9089 -2.0574 5.2510 0.0000 0.0000 0.0000 -23.5742 -10.9482 -4.7668 0.5326 4.6762 12.9873 -0.0863 10.4020 -13.3651 0.0228 0.9747 2.6793 0.0000 0.0000 0.0000 4.3106 6.5044 -5.2535 -2.5816 -9.9848 28.9274 -0.5614 -13.4744 -24.6902 -0.5158 4.6033 -12.7805 -6.3599 -3.8584 -3.8130 0.1420 -5.1269 -6.8988 3.6741 -2.2622 -4.4877 -2.9923 -8.0730 -0.0143 -3.8334 -10.3885 22.7188 -1.3546 -5.6130 6.9058 -0.0000 -0.0000 0.0000 -81.4786 11.9347 43.8722 111.0600 -58.2560 -78.1317 -0.0000 0.0000 -2.0764 9.6415 11.5093 1.9414 -7.1250 0.0000 -0.0000 -15.4826 41.1418 1.5141 -0.0000 -0.0000 0.0000 74.4635 -4.8535 53.5650 -57.2926 55.5442 -32.0983 0.0000 -0.0000 -18.0798 -4.6662 -12.4108 1.0050 7.1250 -0.0000 -0.0000 19.9957 -41.5452 1.7838
1.1194 15.7036 6.1239 6.0863 -2.3148 5.2431 0.0000 0.0000 0.0000 -24.1141 -10.3414 -4.6817 0.4950 4.5110 12.5189 -0.0810 10.1478 -13.0602 0.0263 1.0476 2.8798 0.0000 0.0000 0.0000 3.6053 6.2300 -5.8831 -2.6904 -10.1762 29.5492 -0.5242 -13.0824 -23.9472 -0.5550 4.7723 -13.2603 -6.3800 -3.6909 -3.7009 0.1026 -4.9131 -6.8815 3.6559 -2.1532 -4.5576 -3.2709 -8.0362 -0.4346 -3.6200 -10.3411 22.9560 -1.2718 -5.5957 7.0857 -0.0000 -0.0000 0.0000 -81.6661 12.7193 44.0265 105.6358 -59.0558 -73.4981 -0.0000 0.0000 -2.4537 9.2384 12.0784 1.9493 -7.1250 0.0000 -0.0000 -15.9844 41.6582 1.3562 -0.0000 -0.0000 0.0000 74.9924 -5.4276 52.7764 -53.1494 54.1894 -28.7092 0.0000 -0.0000 -17.2670 -4.4122 -12.6017 0.9644 7.1250 -0.0000 -0.0000 20.2727 -41.7006 1.7292
1.2049 15.7059 6.1365 6.2779 -2.4249 5.1800 0.0000 0.0000 0.0000 -24.6820 -9.7719 -4.5175 0.4559 4.3317 12.0117 -0.0756 9.8425 -12.6783 0.0296 1.1107 3.0534 0.0000 0.0000 0.0000 2.9120 5.9190 -6.4109 -2.8114 -10.3833 30.2272 -0.4952 -12.7388 -23.3187 -0.5957 4.9412 -13.7408 -6.3933 -3.5826 -3.5383 0.0626 -4.7810 -6.8366 3.6334 -2.0861 -4.6182 -3.4658 -8.0128 -0.7429 -3.5255 -10.2964 22.9668 -1.2252 -5.5805 7.1601 -0.0000 0.0000 0.0000 -81.8825 13.5059 44.0861 100.3306 -59.5929 -68.9343 -0.0000 0.0000 -2.9918 8.6816 12.6973 1.9222 -7.1250 0.0000 -0.0000 -16.6420 42.2040 1.1840 -0.0000 0.0000 0.0000 75.4933 -5.9474 51.9571 -49.4106 52.7550 -25.7042 0.0000 -0.0000 -16.4948 -4.2885 -13.0763 0.9720 7.1250 -0.0000 -0.0000 20.5340 -42.1338 1.5229
1.2889 15.7080 6.1485 6.4642 -2.5431 5.1230 0.0000 0.0000 0.0000 -25.2361 -9.1972 -4.3190 0.4127 4.1236 11.4247 -0.0731 9.5514 -12.2650 0.0334 1.1794 3.2425 0.0000 0.0000 0.0000 2.2396 5.6639 -6.9783 -2.9478 -10.6100 30.9757 -0.4614 -12.4502 -22.6952 -0.6200 5.0391 -14.0202 -6.4032 -3.4654 -3.3755 0.0099 -4.6380 -6.8013 3.5958 -2.0135 -4.6915 -3.6811 -7.9753 -1.1252 -3.3540 -10.2434 23.1945 -1.1616 -5.5585 7.3248 -0.0000 -0.0000 0.0000 -82.1178 14.2692 44.0724 94.7094 -59.9160 -64.0773 -0.0000 0.0000 -3.5607 7.8208 13.4018 1.8234 -7.1250 0.0000 -0.0000 -17.6005 42.7959 0.9905 -0.0000 -0.0000 0.0000 76.0181 -6.5072 51.0001 -45.8933 51.1987 -22.9328 0.0000 -0.0000 -15.8025 -4.2524 -13.4691 0.9922 7.1250 -0.0000 -0.0000 20.6970 -42.4982 1.3404
1.3711 15.7099 6.1597 6.6549 -2.6636 5.0752 0.0000 0.0000 0.0000 -25.7847 -8.6386 -4.1200 0.3703 3.9087 10.8199 -0.0712 9.2672 -11.8522 0.0378 1.2555 3.4521 0.0000 0.0000 0.0000 1.5817 5.4688 -7.5747 -3.0960 -10.8489 31.7721 -0.4190 -12.2413 -22.0661 -0.6282 5.0717 -14.1132 -6.4338 -3.3511 -3.2088 -0.0490 -4.5000 -6.7780 3.5632 -1.9418 -4.7785 -3.8670 -7.9139 -1.5551 -3.1552 -10.1637 23.5885 -1.0995 -5.5202 7.5532 -0.0000 -0.0000 0.0000 -82.3865 15.0199 43.9572 88.9073 -59.9955 -59.0537 -0.0000 0.0000 -4.1570 6.6785 14.1656 1.6414 -7.1250 0.0000 -0.0000 -18.8390 43.4059 0.7703 -0.0000 -0.0000 0.0000 76.5379 -7.0793 49.9654 -42.5979 49.5359 -20.3943 0.0000 -0.0000 -15.2410 -4.3385 -13.8351 1.0393 7.1250 -0.0000 -0.0000 20.7486 -42.8496 1.1549
